<?xml version="1.0"?>
<svg xmlns="http://www.w3.org/2000/svg" height="512px" viewBox="-64 0 480 480.00011" width="512px" class=""><g><path d="m56 0h-32c-4.417969 0-8 3.582031-8 8v160h-8c-4.417969 0-8 3.582031-8 8v32c0 4.417969 3.582031 8 8 8h8v23h.230469c-.097657.328125-.175781.660156-.230469 1v32c.003906 3.703125 2.542969 6.917969 6.144531 7.777344 1.152344 1.292968 2.441407 2.457031 3.847657 3.46875l107.449218 76.753906-107.449218 76.753906c-8.441407 6.019532-12.019532 16.804688-8.859376 26.675782 3.160157 9.875 12.339844 16.570312 22.707032 16.570312h3.082031c4.972656.011719 9.820313-1.542969 13.863281-4.441406l119.214844-85.160156 119.199219 85.152343c4.042969 2.90625 8.902343 4.464844 13.878906 4.449219h3.082031c10.367188 0 19.546875-6.695312 22.707032-16.570312 3.160156-9.871094-.417969-20.65625-8.859376-26.675782l-107.441406-76.753906 107.441406-76.742188c1.386719-1.011718 2.660157-2.175781 3.792969-3.464843 3.628907-.839844 6.199219-4.070313 6.199219-7.792969v-32c0-.230469-.136719-.441406-.152344-.664062h.152344v-23.335938h8c4.417969 0 8-3.582031 8-8v-32c0-4.417969-3.582031-8-8-8h-8v-160c0-4.417969-3.582031-8-8-8h-32c-4.417969 0-8 3.582031-8 8v24h-224v-24c0-4.417969-3.582031-8-8-8zm-24 16h16v16h-16zm0 128h16v24h-16zm-16 56v-16h48v16zm56-32h-8v-24h224v24h-8c-4.417969 0-8 3.582031-8 8v32c0 4.417969 3.582031 8 8 8h8v23.550781c-74.265625 10.96875-149.734375 10.96875-224 0v-23.550781h8c4.417969 0 8-3.582031 8-8v-32c0-4.417969-3.582031-8-8-8zm-24 48v20.800781c-5.441406-1.019531-10.773438-2.105469-16-3.257812v-17.542969zm10.664062 70.929688c11.929688 1.910156 24.230469 3.527343 36.800782 4.796874l66.757812 47.671876-15.023437 10.769531zm67.800782 7.285156c16.351562 1 32.925781 1.601562 49.535156 1.601562s33.183594-.558594 49.535156-1.601562l-49.535156 35.386718zm190.246094 155.5625c2.777343 1.976562 3.957031 5.523437 2.917968 8.773437-1.039062 3.246094-4.058594 5.449219-7.46875 5.449219h-3.082031c-1.636719.003906-3.234375-.507812-4.566406-1.464844l-114.75-81.96875 15.039062-10.734375zm-269.230469 12.757812c-1.328125.957032-2.925781 1.46875-4.558594 1.464844h-3.082031c-3.410156 0-6.429688-2.203125-7.46875-5.449219-1.039063-3.25.140625-6.796875 2.917968-8.773437l221.222657-158.023438c12.585937-1.296875 24.894531-2.914062 36.800781-4.800781zm272.519531-196.933594c-95.066406 18.925782-192.933594 18.925782-288 0v-15.609374c95.121094 18.367187 192.878906 18.367187 288 0zm0-32.074218c-5.230469 1.152344-10.566406 2.238281-16 3.257812v-20.785156h16zm16-49.527344v16h-48v-16zm-32-16v-24h16v24zm0-152h16v16h-16zm-8 32h24v80h-288v-80zm0 0" data-original="#000000" class="active-path" data-old_color="#F9F9F9" fill="#FFFFFF"/><path d="m48 64h16v16h-16zm0 0" data-original="#000000" class="active-path" data-old_color="#F9F9F9" fill="#FFFFFF"/><path d="m48 96h16v16h-16zm0 0" data-original="#000000" class="active-path" data-old_color="#F9F9F9" fill="#FFFFFF"/></g> </svg>
